<svg id="Layer_1" data-name="Layer 1" xmlns="http://www.w3.org/2000/svg" viewBox="0 0 176.21 179.77"><defs><style>.cls-1{fill:#1c75bc;}.cls-2{fill:#f15a29;}.cls-3{fill:#6d6e71;}</style></defs><path class="cls-1" d="M112.38,234.51a58.91,58.91,0,0,1-24.27-5.06,64.6,64.6,0,0,1-33.38-33.37c0-.08-.07-.16-.1-.23-5-11.37,4.14-24,16.55-24H85.32a25.9,25.9,0,0,0,2.16,10.5,26.34,26.34,0,0,0,5.81,8.47,28.87,28.87,0,0,0,8.6,5.68,25.81,25.81,0,0,0,10.49,2.15h54.11a27.65,27.65,0,0,0,19.21-7.83,27.36,27.36,0,0,0,5.69-8.47,26.06,26.06,0,0,0,2.15-10.5V72.45a17.71,17.71,0,0,1,17.72-17.71h.47a17.71,17.71,0,0,1,17.72,17.71V171.8a59.15,59.15,0,0,1-5.06,24.28,64.25,64.25,0,0,1-33.5,33.37,59.89,59.89,0,0,1-24.4,5.06Z" transform="translate(-53.24 -54.74)"/><path class="cls-2" d="M229.45,171.8a59.15,59.15,0,0,1-5.06,24.28,64.25,64.25,0,0,1-33.5,33.37,59.89,59.89,0,0,1-24.4,5.06H112.38a58.91,58.91,0,0,1-24.27-5.06,64.6,64.6,0,0,1-33.38-33.37c0-.08-.07-.16-.1-.23-5-11.37,4.14-24,16.55-24H85.32a25.9,25.9,0,0,0,2.16,10.5,26.34,26.34,0,0,0,5.81,8.47,28.87,28.87,0,0,0,8.6,5.68,25.81,25.81,0,0,0,10.49,2.15h54.11a27.65,27.65,0,0,0,19.21-7.83,27.36,27.36,0,0,0,5.69-8.47,26.06,26.06,0,0,0,2.15-10.5" transform="translate(-53.24 -54.74)"/><rect class="cls-1" x="26" y="52.8" width="33.28" height="54.63" rx="1.38"/><rect class="cls-2" x="64.33" y="76.02" width="28.74" height="54.18" rx="1.19"/><rect class="cls-3" x="102.67" y="30.17" width="33.28" height="71.38" rx="1.38"/></svg>